<?xml version="1.0" standalone="no"?>
<!DOCTYPE svg PUBLIC "-//W3C//DTD SVG 20010904//EN"
 "http://www.w3.org/TR/2001/REC-SVG-20010904/DTD/svg10.dtd">
<svg version="1.0" xmlns="http://www.w3.org/2000/svg"
 width="700.000000pt" height="700.000000pt" viewBox="0 0 700.000000 700.000000"
 preserveAspectRatio="xMidYMid meet">
<metadata>
Created by potrace 1.11, written by Peter Selinger 2001-2013
</metadata>
<g transform="translate(0.000000,700.000000) scale(0.100000,-0.100000)"
fill="#000000" stroke="none">
<path d="M2617 6052 c-10 -2 -38 -31 -62 -65 -24 -34 -49 -67 -54 -73 -17 -20
-116 -196 -145 -259 -69 -145 -87 -254 -60 -346 20 -66 88 -138 171 -181 161
-84 268 -99 643 -93 157 3 304 7 327 9 23 2 91 5 150 7 138 5 139 0 41 -124
-98 -124 -370 -461 -378 -467 -3 -3 -37 -43 -75 -90 -121 -147 -597 -697 -675
-780 -20 -21 -170 -187 -191 -212 -15 -16 -144 -159 -194 -214 -53 -57 -194
-211 -225 -244 -37 -40 -43 -47 -101 -120 -91 -114 -168 -281 -193 -420 -17
-99 -15 -320 4 -361 22 -48 44 -51 265 -31 95 9 345 8 405 -1 19 -3 58 -8 85
-12 204 -26 424 -96 635 -201 114 -57 223 -128 544 -353 188 -132 295 -205
411 -280 322 -211 708 -252 990 -108 297 152 487 459 481 777 -2 121 -22 217
-46 230 -13 7 -33 -2 -81 -36 -152 -108 -268 -145 -454 -145 -66 1 -136 3
-155 6 -19 3 -53 8 -74 10 -245 33 -472 127 -815 339 -112 69 -205 126 -206
126 -2 0 -34 19 -71 42 -98 59 -333 171 -447 212 -142 52 -257 80 -374 92 -35
4 -63 9 -63 11 0 31 219 291 405 481 267 273 382 392 479 496 55 60 106 114
111 120 6 6 55 61 110 121 54 61 101 112 104 115 3 3 33 36 66 75 33 38 67 77
75 85 31 33 107 118 150 170 25 29 50 58 55 64 6 6 67 76 135 156 69 80 130
150 135 156 12 13 116 132 170 194 80 92 150 173 160 184 6 6 39 45 75 86 36
41 67 77 70 80 77 77 165 243 197 370 10 41 12 253 2 286 -11 40 -32 45 -117
29 -37 -8 -80 -16 -97 -19 -16 -2 -43 -7 -60 -10 -61 -11 -221 -35 -270 -40
-96 -10 -160 -17 -185 -21 -75 -11 -295 -19 -525 -19 -330 -1 -512 11 -765 49
-83 13 -264 63 -335 93 -38 16 -86 36 -105 44 -19 8 -43 13 -53 10z"/>
</g>
</svg>
